HIERARCHY
ROOT Hips
{
	OFFSET 0.000000 89.005402 0.000000
	CHANNELS 6 Xposition Yposition Zposition Xrotation Yrotation Zrotation
	JOINT Spine
	{
		OFFSET 0.116900 10.681000 0.373400
		CHANNELS 3 Xrotation Yrotation Zrotation
		JOINT Spine1
		{
			OFFSET 0.000000 13.840401 0.053500
			CHANNELS 3 Xrotation Yrotation Zrotation
			JOINT Spine2
			{
				OFFSET 0.000000 14.712700 -0.366200
				CHANNELS 3 Xrotation Yrotation Zrotation
				JOINT Neck
				{
					OFFSET 0.000000 35.415497 -3.314200
					CHANNELS 3 Xrotation Yrotation Zrotation
					JOINT Head
					{
						OFFSET 0.000000 16.899200 1.218300
						CHANNELS 3 Xrotation Yrotation Zrotation
						JOINT HeadTop_End
						{
							OFFSET 0.000000 22.206207 2.192500
							CHANNELS 3 Xrotation Yrotation Zrotation
							End Site
							{
								OFFSET 0.000000 22.314178 0.000000
							}
						}
					}
				}
				JOINT LeftShoulder
				{
					OFFSET 12.896400 26.716293 -4.548400
					CHANNELS 3 Xrotation Yrotation Zrotation
					JOINT LeftArm
					{
						OFFSET 19.027000 -4.857010 -1.718400
						CHANNELS 3 Xrotation Yrotation Zrotation
						JOINT LeftForeArm
						{
							OFFSET 24.179897 0.000000 0.000000
							CHANNELS 3 Xrotation Yrotation Zrotation
							JOINT LeftHand
							{
								OFFSET 27.156403 0.000000 0.000000
								CHANNELS 3 Xrotation Yrotation Zrotation
								JOINT LeftHandIndex1
								{
									OFFSET 16.441200 0.000000 0.000000
									CHANNELS 3 Xrotation Yrotation Zrotation
									JOINT LeftHandIndex2
									{
										OFFSET 4.821899 0.000000 0.000000
										CHANNELS 3 Xrotation Yrotation Zrotation
										JOINT LeftHandIndex3
										{
											OFFSET 6.386497 0.000000 0.000000
											CHANNELS 3 Xrotation Yrotation Zrotation
											JOINT LeftHandIndex4
											{
												OFFSET 5.188988 0.000000 0.000000
												CHANNELS 3 Xrotation Yrotation Zrotation
												End Site
												{
													OFFSET -0.178703 5.185913 0.000177
												}
											}
										}
									}
								}
								JOINT LeftHandThumb1
								{
									OFFSET 6.534897 -5.032593 5.900300
									CHANNELS 3 Xrotation Yrotation Zrotation
									JOINT LeftHandThumb2
									{
										OFFSET 3.818176 -2.204422 2.204423
										CHANNELS 3 Xrotation Yrotation Zrotation
										JOINT LeftHandThumb3
										{
											OFFSET 3.252098 -1.877594 1.877601
											CHANNELS 3 Xrotation Yrotation Zrotation
											JOINT LeftHandThumb4
											{
												OFFSET 5.251778 -3.032120 3.032117
												CHANNELS 3 Xrotation Yrotation Zrotation
												End Site
												{
													OFFSET 0.000023 6.780014 0.000000
												}
											}
										}
									}
								}
							}
						}
					}
				}
				JOINT RightShoulder
				{
					OFFSET -12.896300 26.716293 -4.548400
					CHANNELS 3 Xrotation Yrotation Zrotation
					JOINT RightArm
					{
						OFFSET -19.027000 -4.857010 -1.718400
						CHANNELS 3 Xrotation Yrotation Zrotation
						JOINT RightForeArm
						{
							OFFSET -24.179897 0.000000 0.000000
							CHANNELS 3 Xrotation Yrotation Zrotation
							JOINT RightHand
							{
								OFFSET -27.156403 0.000000 0.000000
								CHANNELS 3 Xrotation Yrotation Zrotation
								JOINT RightHandThumb1
								{
									OFFSET -6.591202 -4.852203 5.988100
									CHANNELS 3 Xrotation Yrotation Zrotation
									JOINT RightHandThumb2
									{
										OFFSET -3.818176 -2.204422 2.204423
										CHANNELS 3 Xrotation Yrotation Zrotation
										JOINT RightHandThumb3
										{
											OFFSET -3.252098 -1.877594 1.877601
											CHANNELS 3 Xrotation Yrotation Zrotation
											JOINT RightHandThumb4
											{
												OFFSET -5.251778 -3.032120 3.032117
												CHANNELS 3 Xrotation Yrotation Zrotation
												End Site
												{
													OFFSET -0.000023 6.780014 0.000000
												}
											}
										}
									}
								}
								JOINT RightHandIndex1
								{
									OFFSET -16.029404 0.000000 0.000000
									CHANNELS 3 Xrotation Yrotation Zrotation
									JOINT RightHandIndex2
									{
										OFFSET -5.213303 0.000000 0.000000
										CHANNELS 3 Xrotation Yrotation Zrotation
										JOINT RightHandIndex3
										{
											OFFSET -6.386528 0.000000 0.000000
											CHANNELS 3 Xrotation Yrotation Zrotation
											JOINT RightHandIndex4
											{
												OFFSET -5.189026 0.000000 0.000000
												CHANNELS 3 Xrotation Yrotation Zrotation
												End Site
												{
													OFFSET 0.236702 5.183624 0.001972
												}
											}
										}
									}
								}
							}
						}
					}
				}
			}
		}
	}
	JOINT LeftUpLeg
	{
		OFFSET 14.073000 -7.904099 -1.463000
		CHANNELS 3 Xrotation Yrotation Zrotation
		JOINT LeftLeg
		{
			OFFSET -0.109806 -34.073280 4.093200
			CHANNELS 3 Xrotation Yrotation Zrotation
			JOINT LeftFoot
			{
				OFFSET 0.109806 -29.899420 -6.319000
				CHANNELS 3 Xrotation Yrotation Zrotation
				JOINT LeftToeBase
				{
					OFFSET 1.551100 -14.988700 20.535801
					CHANNELS 3 Xrotation Yrotation Zrotation
					JOINT LeftToe_End
					{
						OFFSET 0.221200 0.570800 13.248301
						CHANNELS 3 Xrotation Yrotation Zrotation
						End Site
						{
							OFFSET 0.000000 13.262435 0.000000
						}
					}
				}
			}
		}
	}
	JOINT RightUpLeg
	{
		OFFSET -13.839300 -7.904099 -1.463000
		CHANNELS 3 Xrotation Yrotation Zrotation
		JOINT RightLeg
		{
			OFFSET 0.109694 -34.073219 4.093300
			CHANNELS 3 Xrotation Yrotation Zrotation
			JOINT RightFoot
			{
				OFFSET -0.109694 -29.899384 -6.319200
				CHANNELS 3 Xrotation Yrotation Zrotation
				JOINT RightToeBase
				{
					OFFSET -1.551100 -14.988700 20.535801
					CHANNELS 3 Xrotation Yrotation Zrotation
					JOINT RightToe_End
					{
						OFFSET -0.221200 0.570900 13.248299
						CHANNELS 3 Xrotation Yrotation Zrotation
						End Site
						{
							OFFSET 0.000000 13.262440 0.000000
						}
					}
				}
			}
		}
	}
}
MOTION
Frames: 4
Frame Time: 0.033333
-0.367248 77.189453 1.230703 -3.043574 -37.031769 0.271856 6.010273 0.992049 0.120703 8.054471 2.150798 -0.177948 8.035974 2.220405 -0.114724 6.885351 1.390466 -7.964376 7.867283 14.360218 -10.389946 -0.000000 -0.000000 -0.000000 2.391106 -3.429956 -2.776554 -37.186046 -14.474496 -66.783008 -0.000019 -126.636120 -0.000007 3.341410 -4.183245 9.931979 5.029921 6.628653 -74.357510 8.636857 6.654507 -104.815823 5.029925 6.628649 -74.357490 -0.000001 0.000001 -0.000000 5.477416 9.572878 -5.045661 18.936078 30.407053 -7.599443 8.227161 38.219304 10.744997 -0.000001 -0.000000 -0.000000 2.891095 14.309184 -2.294440 -59.855857 30.339051 70.066854 0.000119 107.267424 -0.000108 -8.426238 8.376000 -17.701410 8.395947 -16.401188 6.859059 13.617785 -18.222578 -1.655202 70.789098 -48.031260 23.551875 0.000000 -0.000000 -0.000001 5.546597 -6.806064 78.334299 8.230104 -6.829527 100.656846 5.546592 -6.806068 78.334319 0.000001 0.000001 -0.000000 -30.986782 8.207286 20.260231 30.906234 -10.224295 7.641047 -2.084880 -7.565431 -22.701993 -0.004556 -0.000002 0.000003 -0.000000 -0.000002 0.000000 -9.566289 -13.350033 -21.292059 46.396020 -1.261607 0.995514 -32.494550 -6.275801 16.073935 -0.239270 0.000002 0.000001 0.000000 -0.000002 -0.000000 
-0.604927 76.884613 1.228797 -3.420382 -36.789004 0.040073 6.184414 0.991715 0.046538 8.251844 2.145028 -0.276053 8.234140 2.216818 -0.210773 6.846695 1.374381 -7.814871 7.871035 14.427308 -10.515033 -0.000001 0.000000 -0.000000 2.364659 -3.329232 -2.743347 -37.265669 -14.735653 -66.888705 0.000010 -125.533987 0.000008 3.418563 -4.191167 9.904345 5.029923 6.628649 -74.357503 8.636853 6.654506 -104.815823 5.029923 6.628649 -74.357496 -0.000001 -0.000000 0.000000 5.477418 9.572874 -5.045665 18.936078 30.407056 -7.599453 8.227156 38.219293 10.745003 0.000000 0.000000 -0.000000 2.896352 14.262751 -2.242947 -59.712055 30.177832 70.210711 0.000112 107.234919 -0.000101 -8.222768 8.602202 -17.537158 8.395950 -16.401190 6.859062 13.617784 -18.222578 -1.655204 70.789105 -48.031260 23.551863 0.000000 -0.000002 -0.000001 5.546596 -6.806069 78.334299 8.230096 -6.829527 100.656839 5.546594 -6.806068 78.334319 -0.000001 -0.000001 0.000001 -31.179889 7.978467 20.445521 31.896785 -10.171747 7.856679 -2.673671 -7.780881 -22.954591 0.000002 -0.000005 -0.000010 0.000000 -0.000000 -0.000000 -9.218249 -13.385919 -21.334326 47.252034 -1.278856 1.242456 -33.322522 -6.370051 15.971042 -0.185124 -0.000009 -0.000003 0.000000 -0.000002 -0.000000 
-0.896135 76.577042 1.294810 -3.543877 -36.250362 -0.068010 6.265511 0.987916 -0.021804 8.351814 2.132234 -0.373091 8.334655 2.206654 -0.307304 6.790311 1.377245 -7.775541 7.811377 14.457173 -10.519502 -0.000003 -0.000001 0.000001 2.340251 -3.245656 -2.690267 -37.237307 -14.862862 -66.974786 -0.000051 -125.142043 -0.000034 3.342225 -4.198672 9.660363 5.029917 6.628651 -74.357503 8.636854 6.654505 -104.815823 5.029924 6.628650 -74.357496 -0.000001 0.000001 -0.000001 5.477413 9.572876 -5.045665 18.936069 30.407053 -7.599446 8.227163 38.219300 10.744998 -0.000004 0.000000 0.000000 2.892303 14.296550 -2.265415 -59.567309 30.105329 70.210137 0.000058 107.310181 -0.000057 -7.980638 8.722774 -17.468921 8.395949 -16.401195 6.859062 13.617784 -18.222576 -1.655202 70.789105 -48.031260 23.551869 0.000001 0.000003 0.000001 5.546596 -6.806068 78.334299 8.230106 -6.829523 100.656839 5.546594 -6.806066 78.334319 -0.000001 -0.000002 0.000000 -31.628554 7.632779 20.550502 32.851284 -10.212056 8.111824 -3.241805 -8.132115 -23.210096 -0.030123 -0.000010 -0.000004 -0.000000 0.000002 0.000000 -8.775976 -13.524167 -21.268956 47.952979 -1.551970 1.527733 -34.176054 -6.517320 16.002691 -0.139880 0.000019 0.000002 -0.000000 -0.000002 -0.000000 
-1.237692 76.269173 1.411289 -3.421066 -35.452411 -0.080745 6.235127 0.974109 -0.054301 8.330270 2.096585 -0.426411 8.313284 2.173501 -0.362502 6.683049 1.394810 -7.862187 7.619923 14.408900 -10.406625 -0.000002 0.000001 -0.000000 2.326528 -3.205177 -2.644338 -37.011822 -14.932154 -67.048620 0.000007 -125.311227 0.000018 3.173980 -4.165679 9.348809 5.029919 6.628650 -74.357503 8.636859 6.654506 -104.815830 5.029923 6.628647 -74.357503 0.000000 0.000000 -0.000001 5.477418 9.572875 -5.045660 18.936076 30.407056 -7.599447 8.227159 38.219293 10.744993 0.000000 -0.000000 0.000000 2.847488 14.320874 -2.403526 -59.368633 30.134276 70.081538 -0.000036 107.483361 0.000050 -7.633347 8.777982 -17.523175 8.395948 -16.401188 6.859062 13.617784 -18.222578 -1.655205 70.789105 -48.031260 23.551863 0.000003 0.000000 -0.000000 5.546597 -6.806068 78.334299 8.230103 -6.829526 100.656846 5.546590 -6.806066 78.334319 0.000001 0.000000 -0.000001 -32.367700 7.232238 20.658143 33.746182 -10.237089 8.376541 -3.772267 -8.779844 -23.466988 -0.081166 0.000005 -0.000002 0.000000 -0.000000 0.000000 -8.228034 -13.675371 -21.052088 48.498998 -2.093821 1.902613 -35.041288 -6.713799 16.143738 -0.139901 -0.000002 -0.000004 -0.000000 -0.000000 0.000000 
